D:\PredSimResults\Vitruvian_Man\IG_v12ms_ATx70.mot
version=1
nRows=18
nColumns=31
inDegrees=yes
endheader
                time	         pelvis_tilt	           pelvis_tx	           pelvis_ty	       hip_flexion_r	        knee_angle_r	       ankle_angle_r	       hip_flexion_l	        knee_angle_l	       ankle_angle_l	    lumbar_extension	          arm_flex_r	          arm_flex_l	hamstrings_r/activation	bifemsh_r/activation	glut_max_r/activation	iliopsoas_r/activation	rect_fem_r/activation	  vasti_r/activation	gastroc_r/activation	 soleus_r/activation	tib_ant_r/activation	hamstrings_l/activation	bifemsh_l/activation	glut_max_l/activation	iliopsoas_l/activation	rect_fem_l/activation	  vasti_l/activation	gastroc_l/activation	 soleus_l/activation	tib_ant_l/activation	
          1.82822559	         -4.23439274	          2.17484318	          0.97652470	        -14.46642777	         -6.13336638	          1.79250596	         26.74136369	         -0.70832553	         -1.23886434	         -7.17370815	          3.90640636	          3.90654872	          0.05372046	          0.14989614	          0.05000039	          0.36201462	          0.05000040	          0.05000035	          0.32171565	          0.27195393	          0.05000014	          0.22643210	          0.05000095	          0.07770370	          0.05000049	          0.07237580	          0.05425196	          0.05000114	          0.06128736	          0.38748535	
          1.84041376	         -4.83711800	          2.19456230	          0.97458422	        -13.58920939	         -8.55345907	          0.80716953	         25.85364219	          0.43156365	         -2.04712803	         -6.01048671	          3.13073737	          3.13088311	          0.05460865	          0.12458837	          0.05000024	          0.30089261	          0.05000023	          0.05000016	          0.26739757	          0.22603760	          0.05000008	          0.21965360	          0.05000072	          0.09408121	          0.05000029	          0.06015638	          0.05004520	          0.06015674	          0.06015677	          0.44038558	
          1.85260193	         -5.44363455	          2.21462780	          0.97273914	        -12.48270292	        -11.35196269	         -0.48611246	         24.97334191	          1.16844770	         -3.43532372	         -4.77811701	          2.26620875	          2.26635727	          0.05630425	          0.10355332	          0.05000043	          0.25009027	          0.05000017	          0.05000011	          0.22225048	          0.18787367	          0.05000006	          0.20579501	          0.05311335	          0.12730069	          0.05000016	          0.05000035	          0.05000151	          0.05000015	          0.05000005	          0.62817311	
          1.86479010	         -6.05427346	          2.23442026	          0.97148182	        -11.04178126	        -14.58045252	         -2.35954547	         24.12678979	          2.03017443	         -5.63630311	         -3.55503046	          1.40096191	          1.40111244	          0.05000176	          0.08606974	          0.05000024	          0.20786533	          0.05000022	          0.05000007	          0.18472596	          0.15615329	          0.05000009	          0.19955497	          0.05000402	          0.15439779	          0.05000015	          0.05000044	          0.05000262	          0.05000012	          0.05000004	          0.79485914	
          1.87697827	         -6.65818808	          2.25349531	          0.97108861	         -9.25887748	        -18.17355199	         -4.92241225	         23.43015544	          2.60873216	         -7.29647742	         -2.40725515	          0.60081370	          0.60096538	          0.05000048	          0.07153805	          0.05000023	          0.17276960	          0.05000025	          0.05000008	          0.15353704	          0.12978855	          0.31598040	          0.19402012	          0.05000261	          0.18741267	          0.05000011	          0.05000034	          0.05000390	          0.05000011	          0.05000005	          0.88682159	
          1.88916644	         -7.24481236	          2.27160636	          0.97147641	         -7.23657673	        -21.96489544	         -7.26138713	         22.88636138	          2.91184190	         -8.47098055	         -1.37236041	         -0.09612166	         -0.09596962	          0.05000016	          0.05946028	          0.05000015	          0.14359939	          0.09201054	          0.05000006	          0.12761404	          0.10787520	          0.37022852	          0.17719102	          0.05000233	          0.19732580	          0.05000015	          0.05000048	          0.05000506	          0.05000012	          0.05000005	          0.93755823	
          1.90135461	         -7.80200706	          2.28879810	          0.97251695	         -5.15959190	        -25.63833507	         -7.29510286	         22.45452218	          2.99230392	         -9.19283637	         -0.45567584	         -0.69192112	         -0.69176949	          0.05000021	          0.06965314	          0.05000008	          0.11935429	          0.15264020	          0.05000004	          0.10606785	          0.08966168	          0.43035781	          0.16608171	          0.05000449	          0.20015729	          0.05000028	          0.05000075	          0.05000333	          0.05000018	          0.05000009	          0.96555013	
          1.91354278	         -8.31693534	          2.30531287	          0.97424396	         -3.16896843	        -28.80830553	         -7.18993031	         22.07047889	          2.90580527	         -9.38973431	          0.35782245	         -1.21541188	         -1.21526142	          0.05000024	          0.09653878	          0.05000009	          0.09920293	          0.20083995	          0.05000004	          0.08815956	          0.07452332	          0.41156265	          0.15312699	          0.05000378	          0.20485238	          0.05000026	          0.05000071	          0.05000385	          0.05000024	          0.05000013	          0.96124726	
          1.92573095	         -8.78188803	          2.32133987	          0.97656953	         -1.33704357	        -31.36247606	         -6.69050134	         21.68658771	          2.71840268	         -9.16402945	          1.08189755	         -1.68797810	         -1.68782956	          0.05000026	          0.12788125	          0.05000009	          0.09739125	          0.23101913	          0.05000004	          0.07327511	          0.06194091	          0.38691517	          0.14107593	          0.05000657	          0.20435384	          0.05000031	          0.05000068	          0.05000306	          0.05000027	          0.05000015	          0.87624554	
          1.93791912	         -9.18831274	          2.33704151	          0.97933926	          0.30830438	        -33.28883924	         -5.95524575	         21.25772782	          2.51060340	         -8.75516651	          1.72506064	         -2.12649673	         -2.12635077	          0.05000029	          0.17404784	          0.05000009	          0.10466576	          0.24238756	          0.05000005	          0.06090533	          0.05148292	          0.34487160	          0.12986509	          0.05000873	          0.20050580	          0.05000028	          0.05000059	          0.05000286	          0.05000028	          0.05000015	          0.78906974	
          1.95010729	         -9.52941512	          2.35253216	          0.98235577	          1.77780256	        -34.66446970	         -5.21700771	         20.75622481	          2.32624364	         -8.30408241	          2.29128030	         -2.54132220	         -2.54117941	          0.05000030	          0.22822522	          0.05000010	          0.11424196	          0.23865384	          0.05000006	          0.05062258	          0.05000011	          0.31925872	          0.11895163	          0.05001004	          0.19179829	          0.05000026	          0.05000052	          0.05000277	          0.05000025	          0.05000014	          0.70950373	
          1.96229546	         -9.80010507	          2.36786535	          0.98543938	          3.10628435	        -35.61935196	         -4.63889482	         20.17100648	          2.17988219	         -7.88254484	          2.77839504	         -2.93457338	         -2.93443427	          0.05000031	          0.28487285	          0.05000011	          0.12337205	          0.22554247	          0.05000007	          0.05000059	          0.05000011	          0.30915520	          0.10847737	          0.05000878	          0.18016130	          0.05000023	          0.05000047	          0.05000281	          0.05000024	          0.05000013	          0.64461390	
          1.97448364	         -9.99707443	          2.38304514	          0.98844828	          4.33989877	        -36.30887188	         -4.18925241	         19.50354945	          2.06554379	         -7.50962668	          3.17986769	         -3.30187261	         -3.30173763	          0.05000031	          0.33592137	          0.05000012	          0.13108525	          0.20906511	          0.05000008	          0.05000098	          0.05000013	          0.30715326	          0.09818335	          0.05000703	          0.16697676	          0.05000020	          0.05000042	          0.05000294	          0.05000023	          0.05000013	          0.59250320	
          1.98667181	        -10.11853195	          2.39804729	          0.99128738	          5.52416959	        -36.87734716	         -3.77182417	         18.76167103	          1.96686017	         -7.16653227	          3.48727606	         -3.63530564	         -3.63517520	          0.05000032	          0.37429532	          0.05000012	          0.13683325	          0.19347907	          0.05000009	          0.05000088	          0.05000013	          0.30815061	          0.08799585	          0.05000579	          0.15337286	          0.05000018	          0.05000040	          0.05000311	          0.05000023	          0.05000013	          0.54849070	
          1.99885998	        -10.16407152	          2.41284003	          0.99390666	          6.69464052	        -37.42892167	         -3.36801237	         17.95357685	          1.86799802	         -6.81989920	          3.69288872	         -3.92633406	         -3.92620852	          0.05000033	          0.39623965	          0.05000013	          0.14066308	          0.18117058	          0.05000009	          0.05000084	          0.05000013	          0.31019814	          0.07804305	          0.05000508	          0.13990745	          0.05000017	          0.05000038	          0.05000327	          0.05000023	          0.05000013	          0.50805957	
          2.01104815	        -10.13459889	          2.42739702	          0.99628912	          7.87214935	        -38.02173473	         -2.97165383	         17.08455882	          1.76074329	         -6.44361455	          3.79130687	         -4.16760701	         -4.16748672	          0.05000033	          0.40371848	          0.05000012	          0.14319409	          0.17293948	          0.05000008	          0.05000085	          0.05000013	          0.31283901	          0.06864138	          0.05000473	          0.12675125	          0.05000017	          0.05000037	          0.05000338	          0.05000023	          0.05000013	          0.46859278	
          2.02323632	        -10.03206623	          2.44170190	          0.99843928	          9.06404237	        -38.67423336	         -2.57913866	         16.15638398	          1.64546546	         -6.02520611	          3.77976508	         -4.35353646	         -4.35342176	          0.05000033	          0.40292729	          0.05000012	          0.14519618	          0.16850275	          0.05000008	          0.05000085	          0.05000013	          0.31583893	          0.06042086	          0.05000469	          0.11420888	          0.05000017	          0.05000036	          0.05000340	          0.05000024	          0.05000014	          0.42920523	
          2.03542449	         -9.85811862	          2.45574776	          1.00037529	         10.26770495	        -39.37930713	         -2.18949711	         15.16681779	          1.52923545	         -5.56322886	          3.65643171	         -4.47986932	         -4.47976054	          0.05000034	          0.40040128	          0.05000012	          0.14765842	          0.16735504	          0.05000008	          0.05000086	          0.05000012	          0.31911647	          0.05379918	          0.05000463	          0.10245013	          0.05000016	          0.05000035	          0.05000341	          0.05000027	          0.05000014	          0.39014884	
